<?xml version="1.0" encoding="UTF-8" standalone="no"?>
<!DOCTYPE svg PUBLIC "-//W3C//DTD SVG 1.1//EN" "http://www.w3.org/Graphics/SVG/1.1/DTD/svg11.dtd">
<svg width="100%" height="100%" viewBox="0 0 350 216" version="1.1" xmlns="http://www.w3.org/2000/svg" xmlns:xlink="http://www.w3.org/1999/xlink" xml:space="preserve" xmlns:serif="http://www.serif.com/" style="fill-rule:evenodd;clip-rule:evenodd;stroke-linejoin:round;stroke-miterlimit:2;">
    <g transform="matrix(0.54701,0,0,0.54701,-525.172,-150.887)">
        <g transform="matrix(116.003,-28.4842,28.4842,116.003,988.566,470.03)">
            <path d="M0.136,-0.776L0.32,-0.772L0.297,-0.581L0.916,-0.6L0.912,-0.444L0.661,-0.441C0.647,-0.357 0.632,-0.274 0.616,-0.192C0.598,-0.102 0.574,-0.014 0.544,0.072L0.372,0.064C0.419,-0.101 0.454,-0.269 0.479,-0.439L0.28,-0.436L0.252,-0.196L0.068,-0.204L0.136,-0.776Z" style="fill:white;fill-rule:nonzero;"/>
        </g>
        <g transform="matrix(118.097,-17.9196,17.9196,118.097,1107.29,401.388)">
            <path d="M0.17,-0.772L0.357,-0.772L0.354,-0.521L0.729,-0.32L0.666,-0.164L0.352,-0.344L0.346,0.036L0.162,0.036L0.17,-0.772Z" style="fill:white;fill-rule:nonzero;"/>
        </g>
        <g transform="matrix(119.449,0,0,119.449,1222.04,379.088)">
            <path d="M0.036,-0.408L0.032,-0.568L0.237,-0.571L0.224,-0.765L0.384,-0.78L0.397,-0.573L0.565,-0.575C0.56,-0.659 0.552,-0.742 0.544,-0.824L0.708,-0.853C0.72,-0.761 0.73,-0.669 0.736,-0.577L0.972,-0.58L0.972,-0.42L0.742,-0.417C0.742,-0.38 0.742,-0.342 0.74,-0.305C0.738,-0.257 0.733,-0.209 0.728,-0.162C0.722,-0.114 0.714,-0.067 0.704,-0.021C0.694,0.026 0.68,0.072 0.664,0.115C0.607,0.109 0.551,0.103 0.496,0.096C0.516,0.03 0.533,-0.037 0.546,-0.105C0.56,-0.173 0.568,-0.242 0.572,-0.313C0.573,-0.344 0.573,-0.379 0.572,-0.415L0.407,-0.413L0.424,-0.128L0.268,-0.108L0.248,-0.411L0.036,-0.408Z" style="fill:white;fill-rule:nonzero;"/>
        </g>
        <g transform="matrix(114.508,33.9998,-33.9998,114.508,1363.32,382.004)">
            <path d="M0.072,-0.458L0.761,-0.474L0.756,-0.29L0.068,-0.278L0.072,-0.458Z" style="fill:white;fill-rule:nonzero;"/>
        </g>
        <g transform="matrix(117.072,23.714,-23.714,117.072,1474.52,444.428)">
            <path d="M0.67,-0.821L0.726,-0.673C0.636,-0.641 0.546,-0.612 0.456,-0.587C0.365,-0.562 0.273,-0.544 0.18,-0.533L0.146,-0.686C0.323,-0.718 0.498,-0.763 0.67,-0.821ZM0.054,-0.388L0.384,-0.4C0.386,-0.442 0.383,-0.486 0.377,-0.532L0.545,-0.536C0.551,-0.491 0.554,-0.447 0.554,-0.406L0.821,-0.416L0.821,-0.256L0.539,-0.249C0.517,-0.117 0.468,0.004 0.394,0.112L0.226,0.04C0.289,-0.045 0.334,-0.14 0.36,-0.244L0.058,-0.236L0.054,-0.388Z" style="fill:white;fill-rule:nonzero;"/>
        </g>
        <g transform="matrix(1.82812,0,0,1.82812,960.078,275.84)">
            <path d="M98.671,88.027C117.162,81.85 141.262,82.299 172.325,90.853C191.808,84.593 219.318,81.565 235.263,84.202C248.312,86.361 263.936,94.063 267.99,106.676C271.033,116.144 273.752,132.973 274.496,150.186C275.564,150.083 276.628,149.965 277.687,149.83C283.357,148.902 287.707,147.275 290.888,144.14C296.02,138.243 304.138,132.732 316.381,127.753C321.012,126.35 325.204,125.141 331.4,129.119C333.622,130.973 335.912,133.32 338.454,137.312C340.19,141.087 339.97,144.53 335.95,147.326L345.055,154.836C349.433,158.535 352.786,165.133 346.648,173.272C342.646,177.65 337.209,181.477 328.896,184.196C318.041,185.292 312.088,180.801 307.958,164.395L300.222,168.037C297.37,169.82 295.052,169.264 292.939,167.809C286.357,165.261 280.286,163.547 274.668,162.592C274.462,174.086 273.17,184.987 270.28,193.13C262.176,210.058 246.194,215.373 224.279,211.935C211.85,209.79 199.435,207.589 187.201,204.137C151.86,217.781 124.154,219.316 102.978,210.488C90.33,206.301 77.714,185.809 74.328,160.704C73.656,160.776 72.983,160.855 72.315,160.94C66.645,161.868 62.295,163.495 59.114,166.629C53.982,172.526 45.864,178.037 33.621,183.016C28.99,184.419 24.795,185.628 18.602,181.651C16.382,179.796 14.088,177.449 11.547,173.457C9.812,169.682 10.032,166.239 14.05,163.443L4.946,155.933C0.57,152.234 -2.785,145.637 3.353,137.498C7.356,133.119 12.793,129.293 21.106,126.573C31.962,125.478 37.914,129.968 42.044,146.374L49.78,142.732C52.632,140.949 54.95,141.505 57.063,142.96C62.915,145.226 68.366,146.832 73.451,147.832L73.451,147.284C73.56,118.399 84.382,92.285 98.671,88.027ZM82.651,160.286C83.452,166.674 84.83,173.001 86.919,179.096C88.303,183.136 89.996,187.093 92.147,190.788C92.743,191.818 93.382,192.826 94.059,193.804C94.574,194.542 95.108,195.263 95.676,195.959C96.124,196.511 96.592,197.047 97.078,197.563C97.498,198.004 97.927,198.43 98.38,198.837C98.719,199.145 99.067,199.442 99.43,199.725C101.533,201.376 104.194,202.691 106.937,202.332C107.442,202.266 107.933,202.146 108.41,201.978C109.212,201.697 109.956,201.285 110.642,200.793C111.768,199.988 112.731,198.975 113.576,197.886C114.925,196.147 115.994,194.199 116.9,192.199C117.973,189.837 118.822,187.378 119.533,184.886C120.41,181.821 121.073,178.698 121.593,175.554C122.242,171.628 122.657,167.665 122.89,163.693C123.186,158.621 123.177,153.533 122.905,148.461C122.475,140.371 121.421,132.292 119.628,124.389C118.593,119.817 117.305,115.282 115.588,110.914C115.13,109.742 114.634,108.582 114.1,107.441C113.7,106.582 113.275,105.733 112.817,104.901C112.431,104.188 112.016,103.487 111.577,102.803C111.239,102.272 110.886,101.751 110.509,101.245C110.228,100.866 109.937,100.494 109.627,100.133C109.374,99.834 109.116,99.543 108.844,99.261C107.399,97.76 105.592,96.439 103.484,96.136C103.15,96.089 102.816,96.067 102.482,96.072C101.771,96.083 101.061,96.195 100.379,96.386C99.434,96.651 98.538,97.072 97.708,97.593C96.453,98.382 95.347,99.392 94.36,100.494C92.881,102.148 91.655,104.022 90.587,105.964C89.318,108.276 88.269,110.708 87.363,113.185C86.304,116.098 85.441,119.084 84.73,122.101C83.738,126.296 83.037,130.559 82.57,134.843C82.069,139.479 81.835,144.145 81.878,148.808L81.878,148.966C89.018,149.454 95.352,148.602 100.989,146.602C104.867,151.642 104.232,156.908 101.671,160.029C95.247,159.921 88.899,159.824 82.627,160.095L82.651,160.286ZM220.87,188.462L219.513,190.828C219.016,191.706 217.957,192.07 217.014,191.722C215.061,190.994 213.273,189.951 211.701,188.644C210.939,188.015 210.741,186.906 211.237,186.045L212.595,183.678C211.453,182.354 210.559,180.815 209.963,179.143L207.232,179.143C206.239,179.143 205.378,178.432 205.213,177.439C204.882,175.452 204.865,173.367 205.213,171.298C205.378,170.305 206.239,169.577 207.232,169.577L209.963,169.577C210.559,167.905 211.453,166.366 212.595,165.042L211.237,162.675C210.741,161.814 210.923,160.705 211.701,160.076C213.273,158.769 215.077,157.726 217.014,156.998C217.957,156.65 219.016,157.014 219.513,157.892L220.87,160.259C222.608,159.944 224.379,159.944 226.117,160.259L227.474,157.892C227.971,157.014 229.03,156.65 229.973,156.998C231.926,157.726 233.714,158.769 235.286,160.076C236.047,160.705 236.246,161.814 235.75,162.675L234.392,165.042C235.534,166.366 236.428,167.905 237.024,169.577L239.755,169.577C240.748,169.577 241.609,170.288 241.774,171.282C242.105,173.268 242.122,175.353 241.774,177.422C241.609,178.415 240.748,179.143 239.755,179.143L237.024,179.143C236.428,180.815 235.534,182.354 234.392,183.678L235.75,186.045C236.246,186.906 236.064,188.015 235.286,188.644C233.714,189.951 231.91,190.994 229.973,191.722C229.03,192.07 227.971,191.706 227.474,190.828L226.117,188.462C224.396,188.776 222.608,188.776 220.87,188.462ZM200.049,154.73C200.694,151.255 200.694,147.696 200.049,144.22L205.627,141.44C207.298,140.463 207.944,138.428 207.282,136.624C205.809,132.618 202.995,128.944 200.314,125.733C199.089,124.26 196.954,123.896 195.299,124.856L190.482,127.636C187.834,125.369 184.756,123.581 181.396,122.39L181.396,116.828C181.396,114.892 179.989,113.253 178.086,112.922C173.865,112.211 169.578,112.244 165.507,112.939C163.62,113.27 162.263,114.925 162.263,116.828L162.263,122.406C158.903,123.581 155.824,125.385 153.176,127.653L148.36,124.872C146.688,123.912 144.57,124.276 143.345,125.749C140.663,128.96 137.833,132.635 136.36,136.64C135.682,138.444 136.426,140.48 138.098,141.44L143.61,144.237C142.964,147.713 142.964,151.271 143.61,154.73L138.098,157.511C136.426,158.488 135.698,160.523 136.36,162.327C137.833,166.316 140.663,169.991 143.345,173.201C144.57,174.675 146.705,175.039 148.36,174.079L153.176,171.315C155.824,173.582 158.903,175.37 162.263,176.561L162.263,182.123C162.263,184.059 163.669,185.698 165.573,186.029C169.793,186.757 174.064,186.724 178.135,186.029C180.022,185.698 181.396,184.042 181.396,182.123L181.396,176.561C184.756,175.386 187.834,173.582 190.482,171.315L195.299,174.095C196.97,175.055 199.089,174.691 200.314,173.218C202.995,170.007 205.891,166.333 207.364,162.327C208.026,160.507 207.298,158.471 205.627,157.511L200.049,154.73ZM219.132,178.713C222.318,181.163 225.728,180.571 227.728,178.57C229.729,176.57 230.321,173.16 227.871,169.974C221.499,165.075 214.233,172.341 219.132,178.713ZM180.585,158.223C185.484,151.851 184.296,145.027 180.291,141.022C176.286,137.017 169.462,135.829 163.09,140.728C153.292,153.473 167.84,168.021 180.585,158.223ZM220.87,138.99C222.608,139.305 224.396,139.305 226.117,138.99L227.474,141.357C227.971,142.234 229.03,142.598 229.973,142.251C231.91,141.523 233.714,140.48 235.286,139.172C236.064,138.543 236.246,137.435 235.75,136.574L234.392,134.207C235.534,132.883 236.428,131.344 237.024,129.672L239.755,129.672C240.748,129.672 241.609,128.944 241.774,127.951C242.122,125.882 242.105,123.796 241.774,121.81C241.609,120.817 240.748,120.106 239.755,120.106L237.024,120.106C236.428,118.434 235.534,116.895 234.392,115.571L235.75,113.204C236.246,112.343 236.047,111.234 235.286,110.605C233.714,109.298 231.926,108.255 229.973,107.527C229.03,107.179 227.971,107.543 227.474,108.42L226.117,110.787C224.379,110.473 222.608,110.473 220.87,110.787L219.513,108.42C219.016,107.543 217.957,107.179 217.014,107.527C215.077,108.255 213.273,109.298 211.701,110.605C210.923,111.234 210.741,112.343 211.237,113.204L212.595,115.571C211.453,116.895 210.559,118.434 209.963,120.106L207.232,120.106C206.239,120.106 205.378,120.834 205.213,121.827C204.865,123.896 204.882,125.981 205.213,127.967C205.378,128.96 206.239,129.672 207.232,129.672L209.963,129.672C210.559,131.344 211.453,132.883 212.595,134.207L211.237,136.574C210.741,137.435 210.939,138.543 211.701,139.172C213.273,140.48 215.061,141.523 217.014,142.251C217.957,142.598 219.016,142.234 219.513,141.357L220.87,138.99ZM219.132,129.258C222.318,131.708 225.728,131.116 227.728,129.116C229.729,127.115 230.321,123.705 227.871,120.519C221.499,115.604 214.233,122.886 219.132,129.258Z" style="fill:white;"/>
        </g>
    </g>
</svg>
